<svg version="1" xmlns="http://www.w3.org/2000/svg" width="4000" height="4000" viewBox="0 0 3000.000000 3000.000000"><path d="M921.8 704.8c-9.4 17.2-26.8 52.3-26.8 54 0 .4-.8 2.6-1.9 4.8-1.7 3.5-7.5 20.7-8.8 25.9-.2 1.1-.6 5.1-.7 9-.9 28.6 21.8 54.4 47.9 54.5 19.8 0 39-14.7 45.7-34.9 2.1-6.4 3.2-13.6 3.1-20.3-.3-14.1-12.6-44.7-34.4-85.8-6-11.3-13.8-25-14.2-25-.1 0-4.6 8-9.9 17.8zM1072.7 691.1c-24.7 43.1-43 84.1-45.3 101.5-2.8 20.7 6.6 42.1 23.1 52.7 15 9.6 33.1 10 48 .9 18.2-11 28.4-35.4 24-56.7-4-18.9-20.9-56.4-42.8-94.9l-4.5-7.8-2.5 4.3zM1216.3 690.8c-1.2 2-3.1 5.5-4.3 7.7-1.3 2.2-3.3 5.8-4.5 8-13 23.3-26.5 52.5-32.8 71-3.5 10.4-4.1 13.2-4.1 21-.1 13.4 2.3 22.5 8.5 31.8 23.9 36.1 73.9 26.9 86-15.8 2.3-8 1.8-23.6-1-32.5-5.6-18.1-21.1-51.6-36.9-80-9.2-16.4-8.5-15.7-10.9-11.2zM1357 695.2c-30.3 55.3-42.9 85.1-43.5 103.4-.4 13.4 5.4 29.1 14.2 38.5 29.1 31.2 76.1 13.5 82.1-31 .9-6.5.9-8.1-.3-15.3-1-5.6-5.9-20.4-9.7-29.3-1.6-3.9-3.7-8.8-4.6-11-4.8-11.3-32.3-63.5-33.5-63.5-.1 0-2.2 3.7-4.7 8.2zM1502.1 691.9c-1.7 2.8-3.1 5.3-3.1 5.6 0 .2-1.4 2.8-3.1 5.7-4.9 8.2-23.2 45.2-27.7 55.8-7.4 17.5-12.1 34.2-11.7 41 1.2 17 6.1 28.8 16.4 39 19.3 19.1 48.2 18.3 66.3-1.9 13.3-14.8 17.6-35.2 11.5-54.6-3.2-9.9-6.5-19.1-7.7-21.3-.5-.9-2.3-5.1-4.1-9.2-1.7-4.1-7.1-15.4-12-25-8.1-16-11-21.3-18.9-35.3l-2.7-4.8-3.2 5zM1642.9 696.8c-2.9 5.3-5.7 9.8-6.1 10-.4.2-.8 1.1-.8 2.1 0 .9-.4 2.1-.9 2.6-1.8 1.9-14 26.2-20.2 40-15 33.9-17.5 47.7-11.8 66 7.1 22.9 29.2 38 51.1 34.9 24-3.5 42.7-26.3 42.8-52.2 0-16.9-14.6-52.7-41-100.2-8.2-14.7-6.9-14.4-13.1-3.2zM1787 695.2c-21.6 39.4-32.2 61.7-38.9 81.6-3.9 11.8-4.2 13.3-4.6 21.7-1.2 29.9 23.9 56.4 51.3 54.2 16.8-1.3 32.4-12.6 40-28.7 4.4-9.4 6.6-23.8 4.9-32.1-1.1-5.6-4-15.5-5.3-18.6-.8-1.7-1.4-3.4-1.4-3.7 0-3.2-20.3-45.3-32.3-67.2-9.6-17.5-8.4-16.8-13.7-7.2zM1931.2 693.7c-10.2 17.5-31.2 59-31.2 61.6 0 .7-.4 1.7-.9 2.2-1.5 1.6-8 19.2-10.3 27.9-2.5 9.9-2.8 16.4-1 25.2 5.7 28.7 32.6 47.7 57.9 41 22.7-6.1 38.9-29.2 37.7-54.1-.9-17.9-14.7-50.1-44.9-105-1.5-2.8-2.9-5.1-3-5.3-.2-.2-2.1 2.7-4.3 6.5zM2071.5 699.3c-7.7 13.6-25.1 47.7-27.9 54.7-11.4 28.1-14.1 38.1-13.3 48.5.8 9.5 1.1 11.2 3.5 17.2 10.6 27.5 38.4 40.3 63.1 29.1 20.7-9.3 33.7-35.5 29.1-58.3-1.5-7.9-6.9-23.4-12.7-36.4-6.9-15.6-28.6-57.7-33.8-65.3-1-1.5-2.1-.1-8 10.5zM901.8 870.7c-.2.5-.4 43.2-.3 95 0 51.9-.2 94.3-.5 94.4-.3.1-3.9.2-8 .4-4.1.1-8.2.3-9.1.4-.8 0-3.6 1.5-6.2 3.2-6.7 4.4-10.1 11.7-9.5 20.2.6 6.6 1.7 9.4 5.8 14 4.3 5 9.1 6.8 18.7 7l8.7.2.2 67c.1 36.8.4 71.7.8 77.5.3 5.8.8 14.5 1.1 19.5 2.7 44.8 15.5 98.2 35.5 147 10.4 25.2 41 82.8 48.3 90.5.9 1.1 1.7 2.2 1.7 2.6 0 .6 16.3 23.1 20.6 28.3 1 1.3 5.9 7.2 10.8 13 69.5 82.3 168.4 146.3 283.1 183.1 10.9 3.5 39.9 11.7 45.8 13 2.3.5 7.4 1.6 11.2 2.5 10.5 2.4 11.5 2.6 24 5 4.4.9 9.6 1.8 11.5 2.1 1.9.3 5.8.9 8.5 1.4 2.8.5 7.5 1.2 10.5 1.6 3 .4 5.7.8 6 .9.3.1 3.9.5 8 .9 4.1.5 8.3 1 9.3 1.2.9.1 5.6.6 10.5 1 4.8.4 9.8.8 11.2.9 1.4.2 5.1.3 8.2.4l5.7.1v271l-4.2.1c-4.6.1-6.2.3-18.2 1.3-4.4.4-8.9.9-10 1.1-1.1.2-4.2.7-7 1-11.6 1.2-18.3 2.3-33 5.2-7.1 1.4-13.8 2.7-14.7 2.9-1 .2-2.6.6-3.5.8-51.2 11.9-97.3 31.2-132 55.2-5.1 3.5-10.3 7.2-11.5 8.3-1.3 1.1-4.3 3.6-6.8 5.6-8.3 6.8-18 16.6-27.3 27.3l-2.7 3.2 6.2.1h270.6l264.3.1 1.6 2.6c4.4 7.3 12.7 19.7 15.1 22.5 6.1 7.3 22.3 22.7 29.7 28.4 10.8 8.1 18.9 13.2 31.8 19.7 5.9 3 10.7 5.8 10.7 6 0 .3-26 .8-57.8 1.1-31.7.3-63.5.7-70.7 1-45.5 1.4-57.6 1.9-78 2.9-15.7.9-32.7 2.2-40 3.1-1.6.2-5.7.7-8.9 1-7.6.9-13.8 2.7-14.3 4.2-.4 1.2 1.1 1.9 6.2 2.8 1.7.2 3.9.7 5 .9 6.2 1.2 25 2.9 44 4.1 36.4 2.1 57.1 2.8 113.5 4 21.4.5 157 .5 181.5 0 27.2-.5 62-1.4 73.5-2 38.3-1.8 49.3-2.4 55-3 2.5-.2 7.9-.7 12-1 4.1-.4 8.6-.8 10-1 1.4-.2 4.5-.7 7-1 16.7-2.3 15.8-5.6-2.3-8-13.9-1.8-27.7-2.9-48.6-4-4.6-.2-8.5-.6-8.7-.8-.3-.2 2.4-2.1 5.8-4.1 26.4-15.4 46.6-39.7 59.3-71.1 2-4.9 3.7-9.6 3.9-10.5.1-.8 1.6-5.8 3.3-11 1.7-5.2 8.8-28.2 15.8-51s15.2-49.6 18.2-59.5c3-9.9 5.6-18.7 5.8-19.5.2-.8 2.2-7.6 4.5-15s7.5-24.5 11.7-38c4.1-13.5 8.1-26.5 8.9-29 2.1-6.8 1.8-11.3-.9-13.8-1.6-1.5-14.9-6-42.8-14.5-22.2-6.8-54.2-16.6-71-21.7l-30.6-9.4 1.2-4.5c.7-2.5 4.7-15.9 9-29.6 4.2-13.8 8.3-27 9-29.5.8-2.5 2.2-7.4 3.3-11 13-42.3 13.2-43.1 11.7-46.1-1.3-2.5-3.1-3.3-13.3-6.5-6.4-2-13.7-4.3-16-5-2.4-.8-5.9-1.7-7.8-2-5.9-.9-7 1.3-17.3 35.2-5.2 17-10.6 34.7-12.1 39.4-1.4 4.7-5.1 16.7-8.1 26.7-3 10.1-5.8 18.3-6.4 18.3-.5 0-7.5-2-15.5-4.4-8-2.4-18.5-5.6-23.5-7.1-4.9-1.5-9.9-3.1-11-3.6-1.1-.4-9-2.9-17.5-5.4-8.5-2.6-20.7-6.2-27-8.2-6.3-1.9-13.5-4.1-16-4.8-2.5-.7-9.9-2.9-16.4-4.9-12.1-3.6-14.3-3.7-19.7-1-4.8 2.4-5.5 4.1-16.9 42.4-1.6 5.2-5.4 17.6-8.4 27.5-3.1 9.9-5.8 18.7-6.1 19.5-.2.8-3.1 10.3-6.4 21-42.5 138.1-41.3 133.8-42.7 152.3-.4 4.8-.8 8.7-1 8.7-.2 0-3.9-1.6-8.1-3.6-4.3-2-10-4.5-12.7-5.6-2.7-1-6.8-2.7-9-3.7-7.9-3.5-42.7-14.7-52.1-16.7-1.1-.2-5.6-1.3-10-2.3-4.4-1.1-9.1-2.2-10.5-2.5-1.4-.2-5-1-8-1.6-3-.6-7-1.3-8.9-1.6-1.8-.3-4.1-.7-5-.9-.9-.1-5.2-.8-9.6-1.5-4.4-.6-9.1-1.3-10.5-1.5-1.4-.2-5.2-.7-8.5-1-3.3-.3-7.1-.8-8.5-1-1.4-.2-7.4-.7-13.5-1.1-12.9-.8-13.2-.8-14.1-1.7-.5-.4-.9-217.6-.5-262.3.1-6.6.2-7 2.4-7 14.5-.2 56.5-4.8 71.7-7.9 1.4-.3 4.5-.8 7-1.1 2.5-.3 4.8-.8 5.1-1 .3-.2 2.1-.6 4-.9 62-10.4 125.2-31.7 180.9-60.7 8.5-4.5 18.4-9.8 21.9-11.9 3.4-2.2 6.5-3.9 6.7-3.9 1 0 28.4-17.7 39.4-25.3 10.5-7.4 34.9-25.8 38.1-28.9.8-.7 3.9-3.3 6.9-5.8 3-2.5 6.2-5.2 7.1-6 .8-.8 6.7-6.3 13-12.1 19.6-18.3 39.8-39.6 51.1-54 2.4-3 4.8-6 5.6-6.7.7-.8 2.5-3 4-5 1.5-2.1 2.9-3.9 3.2-4.2.7-.7 8-10.5 13.6-18.5 5.3-7.4 14.2-20.9 18.8-28.5 1.5-2.5 3.1-5.2 3.6-6 11.9-19.2 26.2-48.5 36.4-74.5 9.8-24.8 20.4-61.5 24-83 3.6-21.7 4-24 6.2-45 .5-4.2 1.3-99.7 1.4-153.7v-15.7l8.8.1c12.7 0 18.6-3 23.3-12.1 2.5-4.9 3-15.1.9-19.2-5-9.7-10.9-13.1-23-13.5-4.7-.1-8.8-.3-9.2-.3-.5-.1-.8-42.9-.8-95.1v-95h-65v95c0 52.2-.3 95-.7 95.1-.5 0-3.3.2-6.4.4-3.1.1-7.3 1.2-9.6 2.4-11.5 5.8-15.3 21.7-7.8 32.6 4.7 7 9.2 9.3 18.6 9.6l6 .2-.4 82.1c-.3 45.2-.7 84-1 86.2-1.2 10.7-2 15.9-4.3 29.4-3 18.5-3.2 19-8.6 39.5-2.8 10.3-8.9 29.6-10.8 34-.4 1.1-2.5 6.3-4.6 11.5-18.3 46.6-48.5 95-85.4 137-9.2 10.4-31.6 33-42.5 42.7-58.1 51.8-128.1 91.2-203.5 114.3-17.5 5.3-46.4 12.5-58 14.4-1.9.3-6.6 1.2-10.5 2-3.8.8-8.6 1.7-10.5 2-1.9.3-4.6.8-6 1-1.4.3-6.1 1-10.5 1.6-4.4.6-9.1 1.3-10.5 1.5-1.4.2-5.6.7-9.5 1-3.8.4-8.1.8-9.5 1-1.4.2-6.8.7-12 1l-9.5.6.2-33.6c0-18.5.4-33.9.7-34.3.4-.3 1.9-.6 3.4-.7 2.4-.2 14.1-1.3 21.2-2 5.6-.6 12.6-1.5 15-2 1.4-.2 4.1-.6 6-.9 1.9-.3 6.7-1.2 10.5-2 3.9-.8 8.8-1.7 11-2 2.2-.4 10.1-2 17.5-3.6 45.7-10.1 92-28.1 132.5-51.5 18.8-10.9 51.9-33.7 62.5-43 1.4-1.3 6.6-5.8 11.5-10 10.4-9.1 32.1-30.6 41.6-41.5 5.5-6.2 13.8-16.7 24.7-31 2.8-3.6 18.2-26.8 18.2-27.4 0-.2 1.8-3.3 3.9-6.8 5.4-8.9 14-25.6 18.5-35.8 2.1-4.7 4.1-9.4 4.6-10.5 12.3-27.6 23.2-71.8 25.6-103.5.3-4.7.7-10.3.9-12.5.2-2.2.4-36.5.4-76.2l.1-72.2 7.4.1c12.1.2 19.3-4.6 23.1-15.3 3.8-10.6-2.1-23.8-12.3-27.9-1.8-.7-6.6-1.3-10.7-1.4l-7.5-.1V870h-65v6.7c-.1 3.8-.1 46.5-.1 95 0 48.6-.3 88.3-.7 88.4-.4 0-3.9.2-7.8.3-5.6.2-8.1.8-11.6 2.9-13 7.6-14.8 26.1-3.7 36.3 4.6 4.1 8.1 5.4 16.4 5.7l7 .2v75.5c0 41.5-.4 78.6-.8 82.5-1.3 11.7-1.7 14.9-2.2 17.5-.3 1.4-.7 4.3-1.1 6.5-.3 2.2-.7 4.8-1 5.7-.3 1-.7 3-1 4.5-2.4 13.2-11.1 39.9-19 58-20 46-52.9 90.7-91.3 124.3-3.1 2.7-6.9 6.1-8.6 7.5-3.1 2.7-28.7 22-34 25.6-39.6 26.8-91.1 48.8-137.5 58.8-11 2.3-30.9 6-36 6.7-1.9.2-4.5.6-5.6.9-3.7.8-15.7 2-21.3 2h-5.4l.1-33.3c0-18.4.3-33.7.7-34 .4-.4 1.4-.7 2.3-.8 1 0 4.4-.4 7.7-.8s7.4-1 9-1.2c1.7-.2 4.1-.6 5.5-.9 1.4-.3 5.2-1 8.5-1.6 38.9-6.9 77.6-21.3 111-41.2 9.9-5.9 27.4-17.7 29.8-20.1.6-.7 1.9-1.7 2.8-2.2 1.9-1.1 10.1-8 17.3-14.4 40.9-36.9 70.1-82.4 84.1-131.1 1.9-6.6 3.7-13.1 3.9-14.4 1.5-8.2 2.6-14.6 3.1-18.5.3-2.5.8-6.3 1.1-8.5.3-2.2.7-30.8.9-63.5.2-32.7.4-66.3.4-74.7l.1-15.1h7.3c7.8 0 11.7-1.3 16.4-5.3 6.7-5.7 9.2-15.6 6.2-24.7-3.1-9.5-10.1-14.2-21.5-14.7-4.1-.2-7.8-.6-8.1-.9-.3-.2-.5-43-.6-95V870H1762l-.1 2.2v95c.1 73.1-.2 92.8-1.2 92.9-.6 0-4.1.2-7.7.4-7.6.3-10.4 1.3-14.9 5-11.1 9.4-9.9 28 2.3 36.2 4.1 2.8 5.8 3.3 11 3.4 3.3.1 7 .2 8.1.3 2 .1 2 .8 2 73.1 0 40.1-.4 75.2-.8 78-.4 2.7-1 6.1-1.2 7.5-.3 1.4-.7 4.1-1 6-1.5 9.4-8.2 30.5-13.1 41.5-1 2.2-1.8 4.2-1.9 4.5-.4 2.2-11 21-16.3 28.8-28 41.7-65.5 72-114.7 92.7-14.4 6-37.2 12.8-50.5 15-1.9.3-5.7 1-8.5 1.5-2.7.5-7.1 1.2-9.7 1.6l-4.8.6-.1-4.4c-.2-16.6 0-64 .3-64.3.2-.3 4.9-1.4 10.4-2.5 47.5-9.8 92.2-41.4 115.7-81.8 7.3-12.4 13.6-28.4 16.1-40.4.8-4 1.8-8.7 2.2-10.3.6-2.5 1.2-61.4 1.4-131.1v-16.2l8.4-.3c7.5-.4 8.9-.7 12.7-3.4 6-4.2 9.4-11.1 9.3-19-.2-13.8-9.8-22.5-24.6-22.1-3.4.1-5.8-.3-5.9-.9 0-.5-.2-43.3-.2-95l-.2-94-32.2-.3c-25.5-.2-32.3 0-32.4 1 0 .7-.1 43.5-.2 95.2l-.2 93.8-8.2.3c-9.6.3-15.2 2.9-19.6 9.2-8.9 12.9-1.9 32 12.8 35 1.1.2 4.9.5 8.5.6l6.5.2.1 67.8c.1 79.7.1 79.5-9.6 98.9-8.1 16.3-21.2 30.5-38 41.3-10.5 6.8-27.8 14.5-32.4 14.5-1 0-1.2-62.4-.7-205.7l.1-17.3 6.5.1c4.7.1 7.6-.5 10.9-2 13.9-6.8 16.4-27.5 4.5-37.6-4.6-3.8-7.4-4.8-14.6-5-3.5-.1-6.6-.4-6.9-.8-.4-.3-.6-43.1-.6-95.1V870H1474v3.2c-.1 1.8-.1 44.6 0 95 0 73.7-.2 91.8-1.2 91.9-.7 0-4.7.2-9 .3-11.3.5-17.9 4.8-21.7 14.3-2.9 7.2-.4 19.1 5 24.2 4.9 4.6 9.3 6.1 18.3 6.1h8.4l.1 111.5c0 61.3-.3 111.5-.7 111.5-1.8 0-10.4-3.1-17.2-6.1-33.9-15-56.3-42.3-62-75.9-1.2-6.9-1.6-50.2-1.1-124.7l.1-16.2 8.3.1c6 0 9.3-.5 11.8-1.7 13.6-6.9 16.6-25.5 6-36.8-4.1-4.5-8.1-5.8-17.3-6-4.6-.1-8.5-.5-8.8-.9-.3-.3-.5-43.2-.4-95.2V870h-32.3c-25.1 0-32.3.3-32.4 1.2v95c-.1 51.6-.4 93.8-.7 93.9-.4 0-3.7.2-7.4.3-5 .2-7.7 1-11.1 2.9-13 7.7-14.7 26.5-3.3 36.5 5 4.3 7.3 5.2 15.5 5.4l6.8.2.2 66.5c.1 36.6.3 68.4.5 70.6 2.1 21.5 8.1 41.3 18.4 60 7.5 13.6 14.6 22.9 26.7 34.8 6.3 6.2 25.7 21.7 27.1 21.7.3 0 1.8.8 3.2 1.9 8.5 5.9 28.1 14.8 43.2 19.5 13.2 4.1 14.1 4.4 20.7 5.7l6.2 1.1.1 34.5v34.4l-4.2-.6c-7.8-1.1-22.2-3.6-22.8-4-.4-.2-1.7-.6-3.1-.9-5.9-1.1-19-4.6-24.9-6.7-37.9-13.2-66.5-29.1-92.1-51.1-23.2-19.9-39.6-40.7-53.8-68.2-13.7-26.5-19.5-49.1-21.8-84.6-.6-9.1-.8-68.9-.4-119.1l.1-15.6 8.4-.5c7.6-.4 8.7-.7 12.4-3.7 10.8-8.5 12.1-24.2 2.9-33.9-4.6-4.9-8.2-6.4-16-6.8-3.8-.1-7.2-.6-7.5-.9-.4-.3-.7-43-.7-94.8v-94.2l-32.2-.3c-25.5-.2-32.3 0-32.4 1 0 .7-.1 43.5-.1 95 0 51.6-.3 93.8-.7 93.9-.3 0-4.2.2-8.6.3-5.2.2-9.2.9-11.4 2.1-16.1 8.3-16 32.4.1 40.6 3 1.5 6 2 11.9 2.1 5.1 0 7.9.4 8 1.2.1.6.3 29.9.4 65.1.1 35.2.5 67.4.9 71.5.3 4.1.9 10.2 1.2 13.5 1.4 16.4 5.8 39.2 10.5 54.4 6.3 20.4 20.6 48.8 35.6 70.6 10.9 15.8 28.6 35.6 43.3 48.4 3.5 3.1 7.4 6.4 8.5 7.4 1.1 1 5.2 4.2 9 7.1 19.2 14.5 32.7 22.8 54.5 33.6 5.8 2.8 11.3 5.6 12.2 6 10.2 5.5 49.4 18.4 67.8 22.5 13.9 3 25.8 5.1 37 6.2l7.5.8.2 34.3.2 34.4-7.7-.7c-4.2-.3-8.4-.8-9.2-1-.8-.2-4-.6-7-1-5.9-.6-7.4-.8-19.5-3-4.4-.8-9.3-1.7-11-2-1.6-.2-9.3-2.1-17-4-7.7-2-15-3.8-16.2-4.1-3.8-.8-31.9-10.2-40.1-13.5-8.6-3.4-11.5-4.7-18.7-8-2.7-1.2-5.2-2.3-5.5-2.4-1.5-.3-22-10.7-31-15.8-33.4-18.9-59.9-39.1-86.5-66.1-28.5-28.9-44.1-51.2-66.1-94.6-7.9-15.6-19.1-49.2-22-65.5-3.5-20.9-3.6-20.9-6-42-1.7-15.2-2.2-56.8-1.5-137.7l.1-15.7h6.3c10.3 0 17-4.1 20.8-12.5 6.9-15.6-2.6-31.3-19.4-32.1-3.4-.2-6.6-.4-7.2-.4-.7-.1-1-32.5-1-95.1l.1-95H1044l-.1 2.2c0 1.3-.2 44.1-.2 95.2l-.2 92.8-8.5.2c-13.1.4-19.6 4.6-23 14.7-2.6 7.7-1.8 14.1 2.6 20.6 4.9 7.2 9.5 9.3 20.2 9.3 5.8 0 8.2.4 8.3 1.2.1.7.3 30.8.4 66.8.2 61 .5 71.6 2 87.5.6 6.5 1.1 10.4 3.1 26 1.3 10.2 5.8 33.6 7.5 39.1.5 1.7 1.1 4 1.3 5.1 2.4 12.4 14.6 45.1 21.6 58.1 1.6 3 3 5.9 3 6.4s1.1 2.5 2.3 4.6c1.3 2 4.5 7.7 7.1 12.7 8 15.4 27.9 45.8 35.3 54 1 1.1 5.2 6.1 9.3 11 13.6 16.3 38.4 40.3 57.6 55.5 11.2 9 15.7 12.2 33.5 24.1 12.3 8.3 12.9 8.6 30.9 18.7 11.6 6.6 43.3 22.2 44.9 22.2.5 0 2.2.6 3.8 1.4 4.5 2.4 21.4 9.2 24.8 10 .6.2 1.7.6 2.5.9 5.5 2.3 31.8 10.4 44.5 13.7 28.1 7.3 71.4 14.5 92.5 15.4l2.5.1.2 34.1.2 34.1-5.4-.2c-6.6-.4-19.7-1.5-22.7-2-1.3-.2-5-.6-8.3-.9-3.3-.3-6.9-.8-8.1-1-1.2-.2-4.5-.7-7.5-1.1-4.9-.6-26.9-4.4-34.4-6-7.3-1.5-20.3-4.5-21.6-4.9-.8-.3-2.5-.8-3.9-1-7.9-1.6-28.9-7.8-49.5-14.8-51.3-17.4-100.4-42.2-144.8-73.1-5.5-3.8-10.6-7.5-11.5-8.2-1-.8-4.4-3.4-7.7-5.8-20.1-15-54-46.5-70.6-65.7-26.8-30.9-45.7-59.3-64-96.5-12.4-24.9-17.2-36.4-24.7-59-5.4-15.9-13-44.5-14.7-55-.3-1.7-.8-4.1-1-5.5-.8-4-1.2-6.2-1.9-11.3-.4-2.7-.9-5.7-1.1-6.6-.2-1-.6-5.4-1-9.7-.4-4.3-.9-9.5-1-11.4-1.4-13.9-1.8-35.9-1.9-94-.1-36.6 0-67 .2-67.7.2-.7 2.7-1.2 6.7-1.2 10.7 0 18.8-6.2 21.6-16.3 1.2-4.8.3-13.2-1.9-16.7-4.9-8-10.3-11.2-19.5-11.7-3.4-.1-6.4-.3-6.7-.3-.3-.1-.5-42.7-.5-94.9v-94.7l-32.2-.3c-17.7-.1-32.3.1-32.5.5z"/><path d="M1027.5 1739.6c-13.3 4.2-14.7 4.8-16.1 6.9-1.1 1.7-.3 5 5.7 24.5 9 29.1 9.6 31.2 12.1 39.5 1.1 3.8 2.4 7.9 2.8 9 2.1 5.3 2.2 5.3-4.3 7.4-18.7 5.9-50.5 15.7-70.2 21.6-17.8 5.3-20.6 8.2-17.5 17.9 1.3 4.2 9.2 30 12.3 40.6 7.9 26.4 27.4 90.3 30.8 100.8 7.2 22 18.2 37.9 35.2 50.6 3.4 2.5 4.3 3.6 3 3.7-8.7.3-31.1 1.8-36.8 2.3-1.6.2-6.4.7-10.5 1.1-4.1.4-8.2.9-9.1 1-.9.2-4 .6-7 1s-5.7.9-6 1.1c-.3.2-2 .6-3.7.9-7.3 1.2-10.5 3.7-8.1 6 1.4 1.3 11.8 3.9 19.6 5 2.1.3 5.2.7 6.8 1 2.8.4 12.2 1.3 20.5 2 3.1.3 12.1.9 30.5 2 28.5 1.8 103.7 2.4 141 1.1 31.2-1.1 48.7-2.1 68.5-4.1 12-1.2 13.9-1.5 22.5-3 5.8-1.1 13.4-3.5 14-4.6 3.8-6-32.4-11-97.5-13.5-9.1-.3-16.6-.7-16.7-.8-.2-.1 2.5-1.7 6-3.6 21.9-11.6 40.9-30.9 49.8-50.5 6-13.2 7.4-20.5 7.4-37.5-.1-17.5-.1-17.4-11-53.1-3.7-11.8-8.2-26.6-10.1-32.9-2-6.3-6.9-22.1-10.9-35-4.1-12.9-9.7-31.1-12.6-40.5-2.8-9.3-5.8-17.6-6.6-18.3-.8-.8-2.4-1.4-3.6-1.4-1.2 0-15.7 4.1-32.2 9.2-56.9 17.4-61.5 18.7-61.9 18.1-.2-.3-4.3-13.4-9.1-29.1-4.8-15.7-9.3-30.3-10-32.5-.8-2.2-1.9-5.9-2.5-8.3-1-4-4-8.3-5.7-8.2-.5.1-4.4 1.2-8.8 2.6z"/></svg>